<svg version="1.2" xmlns="http://www.w3.org/2000/svg" viewBox="0 0 2272 1728" width="2272px" height="1728px" transform="rotate(0) scale(1, 1)">
	<title>01 (1)</title>
	<style>.s0 { fill: #b9ddff; }</style>
	<path class="s0" d="m665.2 72.9c1.6 0 1.6 0 3.1 0q5.3 0 10.6 0 3.8 0 7.7 0 8.3 0 16.7 0 12.5 0 25.1-0.1 21.3 0 42.7 0 21.6 0 43.2 0 1.4 0 2.8 0 5.6 0 11.1 0 67.5 0 134.9 0 21.9 0 43.8 0 1.5 0 3.1 0 6.2 0 12.5 0 106.7-0.1 213.5-0.1 8.4 0 16.8 0c1.6 0 1.6 0 3.3 0q16.9 0 33.8 0 3.3 0 6.7 0 108.6 0 217.1-0.1 78 0 156 0 1.6 0 3.2 0 35.2 0 70.4 0 14.2 0 28.4 0 1.5 0 3.1 0 49.9 0 99.9-0.1 50.3 0 100.6 0 7 0 13.9 0c1.4 0 1.4 0 2.8 0q21.5 0 43.1 0 21.2 0 42.5 0 12.4 0 24.8 0 9.3 0 18.5 0 3.7 0 7.4 0c22.8-0.1 43.1 2.6 60.7 18.5q1.3 1.2 2.7 2.4c13.1 12.4 22.2 28.9 23.5 47.2q0.1 4 0.1 8.1 0 1.5 0 3.1 0 5.3 0 10.5 0 3.8 0 7.6 0 8.2 0 16.5 0 12.4 0 24.7 0 21.1 0 42.2 0 21.4 0 42.8 0 1.3 0 2.7 0 5.5 0 11 0 57.4 0 114.8 0 6.2 0 12.3 0 1.6 0 3.1 0 34 0 68 0 13.9 0.1 27.9c0 1.6 0 1.6 0 3.1q0 88.6 0 177.1 0 3.3 0 6.6 0 15 0 30 0 6.6 0 13.3 0 3.3 0 6.7 0 105.6 0 211.2 0 26.6 0 53.2c0 1.6 0 1.6 0 3.3q0.1 50.5 0.1 101 0 1.5 0 3.2 0 34.8 0 69.5 0 12.5 0 24.9 0 3.1 0 6.2 0 49.4 0 98.8 0 49.7 0 99.4 0 6.8 0 13.7c0 1.4 0 1.4 0 2.7q0 21.4 0 42.7 0 20.9 0 41.9 0 12.3 0 24.6 0 9.1 0 18.2 0 3.7 0 7.4c0.1 23-3 42.2-18.5 60.4q-1.1 1.5-2.2 3c-10.9 12.8-29.5 21.6-46.2 23.2-6.4 0.4-12.9 0.3-19.4 0.3q-3.3 0-6.5 0-9 0-17.9 0-9.7 0-19.4 0-17.8 0.1-35.7 0-16.5 0-32.9 0-1.1 0-2.3 0-4.4 0-8.8 0-41.7 0.1-83.4 0-37 0-74 0-41.6 0.1-83.2 0-4.4 0-8.9 0-1 0-2.2 0-16.4 0-32.9 0-18.7 0.1-37.5 0-9.5 0-19.1 0-8.7 0-17.5 0-3.1 0-6.3 0c-14.9 0.1-28.5-1.1-41.9-8.2q-1-0.5-2.1-1c-19-10.2-31.1-27.3-37.4-47.6-2.2-8.1-2.4-16.5-2.4-24.9q0-1.4 0-2.9 0-5 0-10 0-3.6 0-7.2 0-7.9 0-15.8 0-11.9 0-23.7 0-20.1 0-40.3 0-20.4 0-40.8 0-1.3 0-2.6 0-6.6-0.1-13.2 0-13.4 0-26.9 0-1.4 0-2.8 0-21.1 0-42.2c0-1.5 0-1.5 0-2.9q0-5.8 0-11.6 0-70.9 0-141.8 0-16.5 0-33.1 0-3.1 0-6.1 0-6.1 0-12.2 0-6.1 0-12.2-0.1-70.6-0.1-141.1 0-4.8 0-9.6 0-73.7 0-147.3 0-1.6 0-3.2 0-25.6 0-51.2 0-73.6-0.1-147.2c0-1.5 0-1.5 0-3q0-31.7 0-63.5 0-14.8 0-29.7 0-1.4 0-2.9 0-47.2 0-94.3 0-47.5 0-94.9-0.1-6.6-0.1-13.2 0-1.2 0-2.6 0-20.3 0-40.7 0.1-20 0-40 0-11.8 0-23.5 0-8.7 0-17.4 0-3.5 0-7c0.1-19.1-2-34.6-15.5-49.3-11.3-10.4-25.6-15.5-40.8-15.1-9 0.6-17.2 2.8-25.3 6.7q-0.9 0.4-1.9 0.8c-11.2 5.7-20.4 17-29.2 25.7q-1.6 1.7-3.2 3.3-4.4 4.3-8.8 8.7-4.8 4.8-9.6 9.6-9.4 9.5-18.9 18.9-11.4 11.4-22.7 22.7-27.5 27.5-54.9 54.9-13 13-26 25.9-44.5 44.5-88.9 88.9-2.8 2.8-5.6 5.6-1.4 1.4-2.8 2.8-7 7-14 14-1.4 1.4-2.8 2.8-45.1 45.1-90.2 90.2-47.7 47.6-95.4 95.3-5.3 5.3-10.5 10.5-1.3 1.3-2.6 2.6-20.8 20.7-41.5 41.5-20.9 20.8-41.7 41.6-12.4 12.4-24.8 24.8-8.2 8.2-16.5 16.5-4.7 4.7-9.4 9.4-4.3 4.3-8.6 8.6-1.6 1.6-3.1 3.1c-16.8 16.6-27.7 35.9-28.3 59.9 0.2 29.5 16.6 48.8 36.4 68.5q2.2 2.2 4.4 4.4 5.9 5.9 11.9 11.9 6.5 6.4 12.9 12.9 11.2 11.1 22.3 22.2 16.2 16.2 32.3 32.3 7.6 7.5 15.1 15 0.8 0.8 1.5 1.6 18 17.9 35.9 35.8 0.8 0.7 1.6 1.6 18.3 18.2 36.6 36.5 6.3 6.3 12.7 12.7 0.8 0.7 1.6 1.5 17.9 17.9 35.8 35.8 0.7 0.7 1.5 1.5 7.5 7.5 15 15 3.7 3.7 7.4 7.4c0.7 0.7 0.7 0.7 1.5 1.5q11.7 11.7 23.4 23.3 11.8 11.8 23.5 23.5 6.4 6.4 12.8 12.7 5.8 5.8 11.6 11.7 2.1 2.1 4.2 4.2c17.5 17.3 30 36.3 30.4 61.8-0.2 11.3-2.1 21.6-6.5 31.9q-0.4 0.9-0.8 1.9c-5.3 11.6-14.4 20.6-23.4 29.6q-1.8 1.8-3.7 3.7-5.1 5.1-10.2 10.2-5.6 5.6-11.1 11.1-10.8 10.8-21.6 21.7-8.8 8.8-17.6 17.6-2.5 2.5-5.1 5-1.2 1.3-2.5 2.6-23.9 23.9-47.8 47.8-21.8 21.8-43.6 43.6-22.4 22.5-44.8 44.9-12.6 12.6-25.1 25.2-10.7 10.7-21.5 21.4-5.4 5.4-10.9 10.9-5 5-10 10-1.8 1.8-3.6 3.6c-18.3 18.5-42.4 32.7-69.1 33q-3.4 0-6.8 0-1.8 0-3.8 0-5.2 0-10.4 0-5.7 0-11.4 0.1-11.2 0-22.5 0-13.5 0-26.9 0-32.6 0-65.2 0-15.5 0-30.9 0-52.7 0.1-105.5 0.1-3.3 0-6.6 0-1.7 0-3.4 0-8.3 0-16.6 0-1.6 0-3.3 0-53.6 0-107.2 0.1-56.6 0-113.2 0-6.3 0-12.5 0-1.5 0-3.1 0-24.6 0-49.2 0.1-24.8 0-49.6 0-14.7 0-29.4 0-9.8 0-19.6 0-5.6 0-11.2 0-6.1 0-12.1 0c-1.7 0-1.7 0-3.5 0-13.4-0.1-24-4.5-33.8-13.7-16.1-16.8-21.3-37.1-21-59.7 0.4-10.6 3.4-19.7 7.9-29.2q0.4-0.9 0.8-1.8c2.3-4.5 5.3-8.3 8.6-12.2q0.7-0.8 1.4-1.7c5-5.8 10.4-11.2 15.8-16.6q1.6-1.7 3.3-3.3 4.4-4.5 8.9-8.9 4.8-4.9 9.7-9.7 8.5-8.5 17-17 12.7-12.6 25.3-25.3 21.3-21.3 42.6-42.5 29.1-29 58.1-58.1 13.6-13.5 27.1-27.1 1.4-1.3 2.8-2.7 31.5-31.5 63-63 2.2-2.2 4.3-4.3 32.2-32.2 64.5-64.4 3.5-3.5 7.1-7.1 0.7-0.7 1.4-1.4 7.2-7.2 14.3-14.3 2.2-2.2 4.3-4.3 32.2-32.2 64.4-64.4 1.4-1.3 2.8-2.7 13.5-13.5 27-27 6.6-6.6 13.3-13.3 1.3-1.3 2.6-2.6 21.1-21.1 42.2-42.1 21.1-21.1 42.3-42.3 12.5-12.5 25.1-25.1 8.4-8.4 16.8-16.8 4.8-4.8 9.6-9.5 4.4-4.4 8.7-8.7 1.6-1.6 3.1-3.2c16.6-16.4 26.5-34.9 26.7-58.5-0.2-13-2.7-24.1-8.6-35.7q-0.4-1-0.9-2c-7-12.8-19.7-23.1-29.9-33.3q-2.2-2.2-4.4-4.4-6.1-6.1-12.1-12.1-6.6-6.6-13.2-13.1-10.6-10.6-21.2-21.2-17.9-17.9-35.8-35.8-6.9-6.9-13.8-13.8-0.8-0.7-1.6-1.5-18.2-18.2-36.4-36.4-0.8-0.8-1.6-1.6-18.6-18.6-37.2-37.2-0.8-0.8-1.6-1.6-6.5-6.4-12.9-12.9-26.7-26.5-53.3-53.1-3.7-3.8-7.5-7.5-0.7-0.8-1.5-1.5-11.9-11.9-23.8-23.8-11.9-11.9-23.9-23.8-6.4-6.5-12.9-13-5.9-5.9-11.9-11.8-2.1-2.1-4.2-4.3c-17.8-17.6-30.4-36.7-30.5-62.7 0-30.8 17.6-50.4 38.1-71q1.6-1.6 3.2-3.2 4.3-4.3 8.6-8.6 4.7-4.6 9.3-9.3 11.2-11.2 22.4-22.5 4.3-4.2 8.5-8.4 18.7-18.7 37.4-37.5 4.5-4.5 9.1-9.1 1.1-1.1 2.3-2.3 18.3-18.3 36.7-36.7 18.9-19 37.8-37.9 10.6-10.6 21.1-21.2 9-9 18.1-18 4.6-4.6 9.2-9.2c29.4-29.7 29.4-29.7 44.9-36.4q1-0.5 2.1-1c6.9-3 14-5 21.4-6.6q1-0.3 2.1-0.5c4.3-0.7 8.7-0.6 13.1-0.6z"/>
</svg>