<?xml version="1.0" standalone="no"?>
<!DOCTYPE svg PUBLIC "-//W3C//DTD SVG 20010904//EN"
 "http://www.w3.org/TR/2001/REC-SVG-20010904/DTD/svg10.dtd">
<svg version="1.0" xmlns="http://www.w3.org/2000/svg"
 width="1280.000000pt" height="1265.000000pt" viewBox="0 0 1280.000000 1265.000000"
 preserveAspectRatio="xMidYMid meet">

<g transform="translate(0.000000,1265.000000) scale(0.100000,-0.100000)"
fill="#363885" stroke="none">
<path d="M6110 12640 c-8 -5 -36 -18 -61 -30 -108 -48 -164 -149 -157 -276 6
-83 34 -141 94 -194 55 -48 93 -60 186 -60 95 0 147 20 205 79 53 54 76 113
76 196 0 123 -49 201 -164 259 -71 36 -143 47 -179 26z m114 -34 c20 -8 39
-27 49 -48 21 -44 40 -206 32 -278 -15 -144 -42 -180 -132 -180 -73 0 -104 30
-122 117 -16 73 -10 281 9 331 23 62 94 87 164 58z"/>
<path d="M5570 12590 c-52 -10 -88 -18 -79 -19 38 -3 50 -26 65 -121 9 -64 10
-98 3 -105 -5 -5 -51 -15 -100 -20 -109 -13 -108 -14 -116 114 -6 84 -5 89 18
105 23 17 23 17 -36 11 -114 -12 -220 -35 -162 -35 27 0 37 -33 58 -188 30
-214 35 -298 18 -319 -13 -15 -10 -16 31 -10 25 4 73 10 108 13 67 7 86 18 48
28 -13 3 -26 13 -30 21 -9 25 -28 195 -23 209 6 16 184 43 197 30 5 -5 15 -56
21 -113 l12 -104 -29 -24 -29 -25 30 6 c17 3 72 11 123 17 50 7 92 16 92 21 0
4 -6 8 -14 8 -26 0 -37 28 -51 131 -8 57 -19 133 -25 169 -24 160 -24 176 1
199 l23 21 -30 -1 c-16 -1 -72 -10 -124 -19z"/>
<path d="M7154 12522 c-1 -63 -60 -406 -75 -434 -5 -10 -19 -18 -29 -18 -11 0
-20 -4 -20 -8 0 -8 175 -42 215 -42 18 0 18 1 -3 16 -12 8 -22 23 -22 34 0 17
217 275 247 293 19 12 17 -29 -12 -189 -22 -116 -30 -143 -50 -161 l-24 -21
72 -12 c40 -7 90 -16 112 -20 46 -10 56 -6 26 10 -27 14 -27 38 5 219 44 256
47 265 72 276 26 12 29 25 5 25 -10 1 -63 9 -118 19 -84 16 -96 17 -77 4 43
-30 30 -59 -93 -198 -63 -71 -115 -133 -115 -137 0 -15 -30 -8 -30 7 0 15 44
267 55 313 3 12 18 28 33 34 25 10 20 12 -63 29 -49 10 -94 18 -100 18 -5 1
-10 -25 -11 -57z"/>
<path d="M4795 12451 c-104 -26 -203 -51 -219 -55 -27 -7 -28 -8 -21 -53 4
-25 10 -55 15 -67 7 -19 8 -19 15 9 12 54 24 75 57 95 18 11 44 19 58 18 24
-3 27 -13 77 -213 29 -115 53 -220 53 -232 0 -12 -12 -31 -26 -42 -33 -26 -35
-26 89 4 56 13 116 27 132 31 l30 7 -35 9 c-19 5 -40 16 -47 24 -16 22 -116
432 -109 449 4 11 22 15 61 15 52 0 59 -3 90 -37 39 -43 41 -38 20 35 -11 37
-21 52 -33 51 -9 -1 -102 -22 -207 -48z"/>
<path d="M7827 12368 c-14 -40 -24 -75 -21 -77 2 -3 21 12 42 32 45 44 78 57
143 57 92 0 124 -69 79 -167 -22 -49 -46 -59 -115 -49 -58 9 -58 -6 0 -29 25
-9 50 -25 55 -35 28 -52 -10 -160 -67 -193 -26 -15 -38 -16 -71 -8 -52 14
-102 49 -127 88 -20 31 -35 37 -42 16 -2 -5 17 -33 42 -61 60 -66 125 -92 233
-92 91 0 135 21 158 75 25 62 19 93 -31 143 -25 24 -45 48 -45 52 0 4 21 11
47 15 75 11 125 76 109 142 -17 65 -128 122 -256 130 -44 3 -82 11 -91 19 -14
13 -19 7 -42 -58z"/>
<path d="M4330 12320 c-68 -25 -73 -29 -47 -35 19 -5 27 -14 27 -29 0 -31
-107 -251 -122 -251 -12 0 -76 159 -77 193 -1 6 9 22 21 34 12 12 15 19 7 16
-8 -3 -60 -20 -116 -39 -96 -32 -126 -49 -85 -49 9 0 23 -4 30 -9 14 -9 162
-404 162 -433 0 -10 -10 -26 -22 -38 -28 -26 -27 -26 83 14 145 53 135 47 101
61 -24 11 -35 26 -55 81 -34 90 -41 120 -29 128 9 5 142 -83 190 -127 12 -11
22 -29 22 -39 0 -11 6 -18 13 -16 53 14 187 63 187 69 0 4 -10 9 -23 13 -25 6
-294 193 -315 219 -11 13 -6 30 33 109 29 57 60 105 83 125 45 40 30 41 -68 3z"/>
<path d="M6560 12285 c0 -19 1 -35 3 -36 13 -4 384 -25 390 -22 4 2 7 17 7 33
0 23 -5 31 -22 34 -36 8 -261 26 -322 26 l-56 0 0 -35z"/>
<path d="M8403 12272 c10 -10 17 -26 17 -36 0 -20 -145 -380 -166 -413 -9 -15
-24 -23 -41 -23 -43 0 -18 -14 122 -71 94 -37 144 -52 180 -52 140 -2 203 128
109 224 -22 22 -63 52 -91 66 -29 14 -53 27 -53 30 0 14 65 161 78 176 8 9 27
17 41 17 35 0 17 13 -52 39 -32 11 -76 30 -97 41 -50 25 -69 26 -47 2z m116
-338 c60 -76 -25 -232 -113 -210 -35 9 -33 24 15 139 45 106 61 118 98 71z"/>
<path d="M8848 12088 c12 -13 22 -30 22 -36 0 -21 -161 -406 -177 -424 -8 -9
-25 -18 -37 -20 -13 -2 17 -19 84 -45 100 -41 145 -54 108 -32 -10 5 -18 19
-18 30 0 33 160 412 182 432 11 9 30 17 42 17 17 0 -81 45 -214 97 -9 4 -6 -4
8 -19z"/>
<path d="M3710 12080 c-8 -5 -93 -46 -188 -92 -162 -77 -171 -83 -143 -91 28
-7 39 -24 112 -168 44 -88 89 -183 100 -211 18 -46 18 -52 4 -74 -8 -13 -14
-24 -11 -24 5 0 147 66 294 136 126 62 127 62 93 159 l-18 50 -6 -48 c-11 -81
-32 -111 -98 -147 -90 -48 -105 -42 -156 57 -57 109 -59 124 -10 135 41 9 66
0 105 -35 30 -27 28 -12 -7 54 -16 30 -36 75 -46 102 -10 26 -21 47 -25 47 -4
0 -7 -25 -6 -56 1 -49 -2 -58 -27 -80 -15 -13 -35 -24 -43 -24 -15 0 -94 157
-94 187 0 19 125 77 166 77 19 0 46 -11 68 -28 20 -15 36 -24 36 -21 0 3 -11
28 -25 55 -25 50 -43 59 -75 40z"/>
<path d="M9203 11834 c-123 -45 -209 -219 -173 -350 18 -62 94 -145 159 -173
78 -33 221 -28 221 8 0 5 -37 6 -83 4 -71 -5 -89 -3 -125 16 -61 31 -76 59
-69 130 7 80 73 208 145 280 52 52 54 53 101 49 93 -9 150 -80 151 -186 0 -64
8 -61 55 19 40 69 43 83 15 74 -16 -5 -34 6 -75 43 -30 28 -75 60 -101 72 -59
29 -163 36 -221 14z"/>
<path d="M6125 11809 c-672 -33 -1327 -188 -1939 -459 -866 -383 -1615 -977
-2176 -1726 -620 -828 -974 -1744 -1082 -2799 -20 -198 -17 -845 5 -1050 60
-555 198 -1100 402 -1580 324 -766 832 -1468 1455 -2010 823 -717 1836 -1173
2910 -1309 272 -35 374 -41 705 -40 363 0 512 11 834 59 860 131 1742 499
2426 1013 318 240 599 496 834 762 821 927 1294 2052 1382 3286 15 217 7 737
-16 934 -172 1536 -919 2866 -2138 3803 -447 344 -988 635 -1533 823 -503 174
-998 267 -1559 294 -229 11 -272 11 -510 -1z m2075 -1922 l0 -1373 -482 -479
c-266 -264 -679 -675 -918 -912 l-435 -433 783 0 c430 0 782 -3 782 -7 0 -4
-337 -345 -748 -758 -412 -412 -1027 -1030 -1367 -1372 l-619 -623 -790 0
-791 0 1145 1145 1144 1144 -559 3 -560 3 -65 24 c-203 75 -343 190 -437 361
-135 245 -111 564 60 795 34 45 3838 3855 3849 3855 5 0 8 -618 8 -1373z
m2070 -3204 c0 -4 -319 -327 -708 -718 -390 -390 -1005 -1008 -1367 -1372
l-658 -663 -791 0 -791 0 1380 1380 1380 1380 777 0 c428 0 778 -3 778 -7z
m-6291 -3748 c147 -148 288 -294 316 -322 l49 -53 -909 0 -910 0 460 460 460
460 134 -137 c74 -76 254 -259 400 -408z m1746 85 l460 -460 -920 0 -920 0
460 460 c253 253 460 460 460 460 0 0 207 -207 460 -460z m1841 -458 c-250 -1
-663 -1 -918 0 l-463 3 459 459 459 458 458 -458 459 -459 -454 -3z"/>
<path d="M3013 11714 c-59 -21 -132 -89 -159 -149 -69 -147 21 -339 181 -390
134 -42 298 41 350 178 48 126 -20 288 -147 351 -61 30 -155 34 -225 10z m112
-65 c90 -83 184 -253 185 -332 0 -31 -7 -46 -34 -73 -30 -30 -40 -34 -84 -34
-47 0 -53 3 -102 53 -86 88 -170 244 -169 317 0 61 54 108 127 109 25 1 43 -9
77 -40z"/>
<path d="M9734 11622 c12 -14 16 -29 12 -45 -3 -13 -63 -104 -134 -203 l-129
-179 -38 2 c-45 3 -45 4 60 -68 112 -77 106 -75 99 -40 -5 25 2 43 42 101 59
87 72 99 85 79 10 -16 11 -96 2 -191 -6 -64 -7 -68 -31 -68 -23 0 -23 -1 12
-25 20 -14 60 -43 90 -65 29 -22 55 -40 57 -40 2 0 4 92 4 205 1 112 3 206 6
209 12 12 208 37 253 32 27 -3 47 -4 45 -2 -2 3 -35 27 -74 55 -71 52 -102 66
-72 33 24 -26 21 -51 -6 -61 -21 -8 -226 -41 -255 -41 -22 0 -13 25 34 90 57
79 69 90 108 91 28 0 29 2 13 12 -10 7 -50 36 -90 65 -40 30 -81 58 -92 64
-20 11 -20 11 -1 -10z"/>
<path d="M2545 11378 c-35 -12 -99 -57 -204 -143 -68 -55 -72 -60 -48 -63 15
-2 41 -21 64 -46 55 -61 237 -295 244 -315 4 -9 0 -28 -8 -43 -7 -16 -11 -28
-8 -28 3 0 46 33 96 72 90 73 90 73 61 80 -20 5 -48 31 -86 78 -31 39 -56 74
-56 80 0 5 16 21 35 35 81 63 115 157 80 224 -36 70 -97 95 -170 69z m13 -85
c33 -30 82 -105 82 -127 0 -28 -36 -86 -53 -86 -16 0 -46 32 -113 119 l-49 63
28 24 c33 28 77 31 105 7z"/>
<path d="M2070 11007 c-41 -40 -137 -132 -213 -205 -125 -120 -135 -133 -105
-127 32 6 38 1 196 -158 159 -160 178 -187 150 -215 -6 -6 -10 -13 -7 -16 2
-2 47 37 99 86 52 50 87 88 78 84 -10 -3 -25 -9 -34 -12 -11 -5 -59 36 -169
147 -84 85 -158 164 -164 177 -11 20 -7 28 40 77 84 89 78 91 251 -81 82 -82
154 -159 159 -171 5 -14 5 -33 -2 -50 l-10 -28 33 31 c18 18 62 59 98 93 52
49 59 59 36 51 -22 -8 -34 -7 -51 4 -40 26 -310 317 -313 337 -2 11 2 27 8 35
7 7 9 14 4 14 -5 0 -43 -33 -84 -73z"/>
<path d="M10230 10947 c-135 -60 -257 -111 -272 -111 -16 -1 -28 -3 -28 -6 0
-3 21 -23 46 -44 35 -29 45 -34 40 -19 -9 27 26 69 70 83 35 12 36 11 102 -48
37 -32 68 -67 70 -76 5 -24 -28 -104 -45 -110 -8 -3 -23 -1 -34 4 -27 15 -24
-4 4 -22 12 -9 54 -44 92 -79 l70 -63 6 55 c3 30 15 84 27 119 42 127 121 414
116 422 -3 4 -8 8 -12 7 -4 -1 -117 -51 -252 -112z m92 -3 c3 -3 -1 -26 -8
-52 -8 -26 -19 -64 -25 -84 -5 -21 -14 -38 -20 -38 -15 0 -120 92 -116 103 2
7 144 76 158 77 3 0 8 -2 11 -6z"/>
<path d="M10749 10710 c-36 -34 -40 -40 -19 -34 70 19 160 -12 160 -55 0 -30
-318 -321 -351 -321 -11 0 -29 5 -41 11 -31 17 -14 -7 76 -102 54 -58 77 -77
73 -60 -9 35 8 60 82 124 36 32 109 96 161 142 60 54 102 84 114 83 11 -2 29
-21 42 -46 21 -40 22 -45 8 -84 -8 -23 -12 -44 -9 -47 3 -3 24 14 47 36 l41
42 -46 53 c-163 184 -266 293 -279 296 -8 1 -34 -16 -59 -38z"/>
<path d="M1459 10378 c-13 -18 -47 -63 -76 -100 -30 -38 -49 -68 -44 -68 5 0
13 5 16 10 9 14 51 12 63 -2 9 -12 121 -287 136 -335 12 -39 -11 -27 -125 62
-59 46 -117 90 -128 97 -28 17 -41 50 -29 72 5 10 8 19 6 21 -4 4 -133 -162
-152 -195 -7 -12 -6 -13 5 -2 30 28 64 12 219 -104 203 -151 213 -161 205
-199 -5 -25 -4 -28 8 -15 37 41 148 192 144 196 -2 2 -10 -2 -17 -11 -19 -22
-57 -18 -74 8 -28 43 -137 330 -129 338 4 4 69 -38 143 -94 135 -103 135 -103
133 -141 l-3 -39 71 89 c38 49 75 98 81 109 11 19 10 19 -15 2 -15 -10 -34
-14 -44 -10 -23 8 -332 243 -357 271 -13 15 -16 29 -12 47 8 33 2 32 -25 -7z"/>
<path d="M1200 10341 c-12 -24 1 -35 30 -26 31 10 40 -2 28 -36 -23 -67 -110
-127 -114 -79 -1 8 -2 21 -3 28 -3 31 -41 4 -41 -29 0 -23 42 -49 79 -49 93 0
158 127 95 185 -32 30 -60 32 -74 6z"/>
<path d="M11208 10277 c4 -39 12 -32 -197 -186 -155 -114 -200 -137 -216 -111
-3 6 -11 10 -16 10 -6 0 -2 -11 8 -23 10 -13 71 -94 136 -180 66 -87 123 -159
128 -162 8 -5 129 51 129 59 0 3 -29 4 -64 4 -72 -2 -96 12 -153 84 -49 61
-45 77 40 141 112 84 115 85 133 41 17 -40 9 -81 -23 -116 -9 -10 -14 -20 -11
-23 6 -7 198 133 198 145 0 4 -18 1 -41 -6 -36 -13 -44 -12 -75 2 -65 31 -63
46 20 108 40 31 83 56 94 56 24 0 79 -60 98 -106 19 -45 17 -73 -6 -112 -11
-18 -20 -35 -20 -38 0 -6 36 20 84 59 l30 24 -75 100 c-212 285 -207 279 -201
230z"/>
<path d="M1010 9763 c-24 -38 -54 -85 -67 -106 -25 -39 -27 -60 -3 -32 17 20
53 19 72 -2 23 -28 168 -301 168 -318 0 -8 -3 -15 -7 -15 -5 0 -73 40 -153 89
-138 85 -145 90 -145 121 0 29 -1 30 -13 13 -22 -30 -122 -194 -122 -199 0 -3
10 2 22 10 12 9 30 16 38 16 24 0 362 -198 388 -227 17 -18 22 -33 17 -50 -9
-37 10 -20 43 40 16 28 42 74 57 101 26 46 27 48 6 37 -35 -19 -57 -4 -95 67
-20 37 -60 110 -90 162 -49 87 -57 110 -38 110 15 0 277 -161 290 -178 7 -9
11 -27 9 -39 -2 -13 -3 -23 -1 -23 4 0 124 200 124 207 0 4 -5 2 -12 -5 -24
-24 -56 -11 -222 88 -227 135 -229 136 -224 171 3 16 4 29 2 29 -1 0 -21 -30
-44 -67z"/>
<path d="M11624 9713 c4 -12 2 -32 -4 -43 -15 -29 -111 -89 -254 -161 -91 -46
-128 -59 -154 -57 -48 4 -52 25 -8 43 30 13 36 20 36 45 0 57 -69 61 -105 6
-34 -52 13 -126 80 -126 33 0 166 62 320 149 50 28 98 51 107 51 20 0 58 -51
58 -78 0 -26 -7 -31 -204 -149 -166 -101 -208 -117 -234 -91 -26 26 -10 -8 45
-94 45 -71 58 -86 64 -71 10 28 30 42 217 153 167 99 198 112 234 96 9 -4 -29
68 -84 161 -102 171 -126 206 -114 166z"/>
<path d="M11900 9233 c0 -41 0 -41 -229 -147 -184 -86 -217 -96 -239 -74 -22
22 -12 -4 53 -138 46 -96 79 -148 113 -184 44 -45 53 -50 93 -50 50 0 99 26
125 65 22 34 14 121 -21 198 -14 32 -25 62 -25 67 0 11 97 61 153 80 32 10 41
9 62 -4 14 -9 25 -15 25 -12 0 2 -25 55 -55 117 -45 94 -55 108 -55 82z m-132
-317 c11 -34 10 -43 -5 -75 -32 -63 -136 -101 -194 -70 -24 12 -49 67 -41 87
7 19 181 102 207 99 14 -1 24 -15 33 -41z"/>
<path d="M640 9113 c-22 -47 -38 -88 -36 -90 2 -3 9 5 16 16 16 31 47 26 66
-10 22 -43 84 -216 84 -235 0 -19 -19 -14 -119 34 -54 26 -77 44 -85 64 -12
27 -13 26 -60 -77 -46 -99 -55 -135 -26 -100 7 8 24 15 38 15 43 0 383 -158
416 -193 16 -17 31 -26 33 -20 2 6 22 48 44 93 21 45 39 84 39 86 0 3 -9 0
-21 -6 -26 -14 -54 -8 -147 36 -44 20 -72 39 -70 46 5 14 162 47 226 48 37 0
42 -3 43 -22 0 -14 22 21 54 87 29 61 51 111 50 113 -2 2 -15 -4 -28 -13 -14
-9 -74 -25 -134 -35 -59 -11 -141 -26 -180 -34 -56 -10 -75 -11 -82 -2 -6 7
-26 60 -46 118 -25 74 -33 115 -29 137 11 52 -3 35 -46 -56z"/>
<path d="M11885 8572 c-113 -54 -172 -150 -163 -265 11 -130 113 -254 195
-234 15 3 13 6 -10 15 -81 34 -154 134 -144 197 9 57 36 84 122 126 145 70
287 85 332 36 65 -71 57 -163 -20 -244 -30 -32 -31 -33 -7 -33 26 0 140 40
140 49 0 3 -8 11 -19 18 -14 9 -19 28 -23 80 -18 223 -211 345 -403 255z"/>
<path d="M415 8560 c5 -24 0 -38 -29 -76 -38 -49 -66 -126 -66 -179 0 -96 66
-199 156 -245 69 -35 194 -41 251 -11 101 51 163 148 163 255 0 62 -29 146
-50 146 -13 0 -13 -5 5 -65 23 -73 11 -147 -28 -192 l-31 -35 -91 4 c-106 5
-229 48 -289 101 -92 79 -38 214 100 249 28 7 52 17 55 21 3 7 -120 55 -144
57 -5 0 -6 -13 -2 -30z"/>
<path d="M12357 8061 c-3 -16 -14 -32 -24 -35 -14 -6 -95 -25 -420 -101 -15
-3 -30 2 -44 16 -11 11 -22 19 -23 17 -1 -1 10 -52 25 -113 20 -81 29 -104 34
-88 8 24 30 33 135 58 82 19 90 19 90 0 0 -23 -171 -197 -187 -191 -17 7 -17
-15 3 -105 23 -107 22 -107 42 -71 22 41 250 292 265 292 21 0 172 -103 211
-144 22 -23 37 -34 33 -25 -3 10 -13 53 -23 98 -10 45 -21 81 -26 81 -5 0 -6
-10 -3 -23 10 -38 -16 -52 -57 -31 -77 39 -217 130 -214 139 2 9 87 34 169 49
32 6 40 3 63 -21 l27 -28 -6 25 c-36 161 -53 230 -58 230 -4 0 -9 -13 -12 -29z"/>
<path d="M201 7928 c-6 -35 -18 -89 -26 -122 l-14 -58 24 22 c26 25 58 25 173
0 61 -14 62 -16 35 -135 -18 -86 -13 -83 -125 -60 -85 18 -118 37 -119 68 -1
24 -48 -167 -49 -196 0 -16 2 -16 23 -2 21 13 34 13 143 -10 65 -14 162 -35
214 -45 106 -23 140 -40 141 -73 0 -19 21 65 45 182 l7 33 -26 -16 c-23 -16
-31 -16 -121 3 -112 24 -116 25 -116 52 0 28 31 152 42 165 6 9 33 6 101 -8
105 -23 137 -39 137 -70 0 -12 2 -19 4 -17 5 5 46 178 53 224 l4 30 -18 -27
c-10 -16 -27 -28 -38 -28 -38 0 -437 89 -451 101 -8 6 -14 20 -14 30 0 43 -19
15 -29 -43z"/>
<path d="M12511 7409 c-1 -39 -18 -47 -117 -59 -49 -5 -145 -17 -214 -25 -159
-19 -147 -20 -176 12 l-26 28 6 -35 c3 -19 11 -75 17 -125 5 -49 12 -91 13
-93 2 -2 8 11 14 27 7 20 18 31 30 31 18 0 266 -101 333 -136 17 -8 27 -19 23
-24 -11 -9 -252 -40 -316 -40 -24 0 -49 5 -56 12 -9 9 -11 -9 -5 -82 3 -52 9
-106 13 -120 7 -24 7 -24 14 8 9 37 4 35 176 57 264 34 293 35 317 19 13 -8
23 -19 23 -24 0 -6 4 -10 9 -10 4 0 2 37 -5 83 -8 45 -14 101 -14 125 0 47
-17 58 -22 15 -4 -38 -40 -41 -109 -10 -30 14 -99 44 -154 67 -108 46 -130 59
-118 71 11 10 212 34 293 34 58 0 66 -2 75 -22 11 -27 29 -31 21 -5 -3 9 -10
59 -17 111 -12 100 -27 160 -28 110z"/>
<path d="M592 7210 c-16 -26 -41 -37 -313 -134 -251 -90 -247 -89 -230 -110 8
-9 18 -16 24 -16 5 0 33 -14 61 -31 28 -18 123 -72 211 -121 90 -50 172 -102
188 -120 27 -32 27 -32 27 -8 0 14 3 50 6 80 5 54 5 55 -11 28 -10 -19 -24
-28 -41 -28 -25 0 -84 26 -94 41 -10 15 10 183 23 195 15 14 73 34 98 34 10 0
25 -12 33 -27 11 -19 15 -23 16 -11 0 10 5 62 11 117 13 117 10 142 -9 111z
m-186 -255 c8 -19 -4 -115 -15 -134 -7 -11 -25 -5 -90 30 -44 24 -80 48 -78
53 3 9 142 64 165 65 7 1 15 -6 18 -14z"/>
<path d="M12590 6680 c0 -36 -30 -40 -272 -38 l-232 3 -13 25 c-11 21 -13 7
-12 -100 0 -97 3 -120 11 -103 16 34 44 37 92 11 151 -82 285 -165 286 -175 0
-10 -41 -13 -175 -13 -162 0 -177 2 -195 20 l-20 20 0 -122 c1 -112 2 -120 14
-92 l14 31 103 6 c165 10 348 8 370 -3 11 -6 24 -21 29 -33 6 -15 9 17 9 96
l1 117 -20 -20 c-27 -27 -37 -26 -111 18 -35 21 -108 64 -161 96 -54 31 -98
61 -98 67 0 6 68 8 182 7 l182 -3 13 -25 c11 -21 13 -7 13 103 0 70 -2 127 -5
127 -3 0 -5 -9 -5 -20z"/>
<path d="M515 6562 c-27 -25 -261 -197 -293 -216 -18 -11 -164 134 -187 184
-22 48 -40 53 -31 9 3 -17 6 -49 6 -70 0 -37 1 -38 30 -33 27 6 39 -2 127 -87
54 -52 99 -100 101 -106 4 -17 -219 -18 -235 -2 -8 8 -12 6 -16 -7 -4 -17 -4
-108 1 -174 l2 -25 13 25 13 25 242 3 243 2 14 -32 c13 -31 14 -23 14 107 0
139 0 140 -17 105 l-17 -35 -108 -3 c-84 -2 -107 0 -107 11 0 22 187 147 220
147 l29 0 -1 83 c-1 114 -5 122 -43 89z"/>
<path d="M12685 6488 c-45 -39 -50 -133 -10 -178 34 -37 115 -33 115 6 0 25
-29 28 -49 3 -18 -22 -19 -22 -28 -3 -21 39 -25 100 -9 139 l16 38 25 -23 c23
-22 55 -22 55 -1 0 15 -42 41 -67 41 -12 0 -34 -10 -48 -22z"/>
<path d="M552 5938 c-6 -14 -19 -29 -29 -32 -40 -12 -444 -55 -460 -49 -10 4
-22 11 -26 17 -10 14 0 -99 15 -174 11 -50 12 -52 17 -25 8 41 48 45 121 11
30 -14 102 -45 160 -70 57 -25 106 -49 108 -55 4 -13 -19 -18 -133 -32 -200
-23 -214 -23 -236 -3 l-21 19 5 -40 c4 -22 9 -67 12 -101 6 -57 24 -112 25
-73 0 9 6 21 13 27 13 11 256 47 396 58 75 6 85 5 99 -12 13 -17 14 -11 8 56
-3 41 -9 96 -12 122 l-7 48 -16 -33 c-9 -17 -24 -33 -33 -35 -9 -2 -79 25
-155 59 -76 34 -153 68 -172 76 -20 9 -30 18 -25 23 12 12 222 40 302 40 55 0
64 -3 72 -22 11 -25 4 116 -10 187 l-7 40 -11 -27z"/>
<path d="M12036 5803 c-3 -10 -12 -61 -20 -113 -15 -91 -15 -124 -1 -81 9 30
49 37 83 15 54 -35 272 -215 272 -224 0 -13 -4 -13 -175 11 -151 20 -195 35
-195 66 0 60 -38 -124 -40 -190 0 -17 1 -17 16 -3 19 20 4 20 175 -4 315 -43
329 -47 329 -87 0 -14 4 -21 10 -18 6 3 10 23 10 43 1 20 7 66 15 102 8 36 14
76 15 90 0 24 -1 24 -20 -7 -11 -18 -26 -33 -33 -33 -17 0 -56 29 -201 146
-122 99 -137 118 -85 110 19 -3 97 -15 174 -27 77 -12 146 -26 153 -31 6 -6
12 -21 12 -35 0 -13 4 -22 9 -19 5 3 14 50 20 103 7 54 14 112 17 128 l5 30
-16 -27 c-20 -35 -19 -35 -280 2 -176 25 -213 33 -227 50 -15 19 -17 19 -22 3z"/>
<path d="M647 5279 c-9 -34 -22 -39 -251 -94 -209 -50 -228 -52 -250 -29 -19
19 -21 6 -6 -46 6 -19 24 -96 41 -170 33 -141 48 -186 49 -139 0 15 6 31 13
37 19 16 339 83 405 85 62 2 95 -13 85 -39 -3 -8 -19 -14 -39 -14 -62 0 -68
-71 -8 -86 70 -18 113 88 59 142 -26 26 -29 27 -115 21 -49 -4 -131 -16 -182
-28 -216 -48 -222 -48 -238 11 -19 69 -24 66 209 121 69 17 154 35 189 42 62
11 64 11 83 -13 25 -34 24 -17 -9 115 -23 87 -30 105 -35 84z"/>
<path d="M11926 5125 c-52 -175 -55 -193 -30 -157 19 28 45 28 154 -2 69 -18
86 -27 88 -43 3 -21 -32 -170 -42 -180 -10 -10 -210 51 -229 70 -10 10 -20 17
-22 15 -1 -1 -12 -39 -23 -83 -12 -44 -24 -91 -28 -105 l-7 -25 21 25 21 25
208 -53 c244 -62 257 -68 261 -105 6 -48 17 -29 45 76 15 56 30 113 33 127 l7
25 -26 -27 c-14 -16 -29 -28 -32 -28 -17 0 -181 44 -189 51 -8 7 29 177 43
191 8 9 174 -34 195 -51 9 -7 16 -25 16 -39 0 -46 17 -10 45 93 40 147 39 144
19 118 -10 -14 -27 -23 -44 -23 -26 0 -382 90 -434 110 -14 5 -26 19 -28 32
-3 17 -9 6 -22 -37z"/>
<path d="M642 4673 c-54 -26 -72 -58 -72 -125 0 -33 9 -85 21 -120 12 -36 16
-65 11 -70 -5 -5 -48 -22 -96 -39 -100 -35 -106 -34 -130 38 -24 71 -21 107
15 148 18 20 30 38 27 40 -3 3 -28 -4 -56 -16 -35 -15 -52 -27 -52 -39 0 -21
119 -371 130 -383 4 -5 10 5 13 21 7 34 4 33 280 127 160 54 169 56 192 41 14
-9 25 -15 25 -12 0 8 -70 210 -87 251 -54 130 -135 181 -221 138z m180 -124
c11 -6 26 -27 35 -46 13 -33 13 -37 -4 -54 -19 -18 -182 -79 -212 -79 -28 0
-37 83 -13 124 30 51 142 83 194 55z"/>
<path d="M11815 4457 c-100 -40 -160 -112 -185 -221 -12 -54 2 -134 30 -168
25 -32 33 -18 15 25 -32 77 -12 197 39 232 37 27 143 19 241 -16 150 -54 217
-126 196 -206 -19 -70 -111 -133 -194 -133 -27 0 -29 -2 -17 -13 14 -13 122
-57 139 -57 4 0 8 13 8 28 0 18 15 49 42 84 49 66 61 101 61 183 0 108 -62
201 -165 246 -59 26 -166 34 -210 16z"/>
<path d="M490 3974 c0 -3 7 -18 15 -32 8 -15 20 -40 26 -57 l11 -30 10 27 c7
21 18 29 45 34 35 7 203 -3 212 -12 8 -7 -36 -82 -91 -158 -38 -52 -54 -67
-69 -63 -10 3 -19 4 -19 2 0 -2 20 -47 45 -100 l46 -97 27 50 c15 27 70 118
122 201 103 163 109 168 185 157 53 -8 82 -31 64 -52 -6 -8 -17 -14 -24 -14
-16 0 -45 -33 -45 -52 0 -19 32 -48 52 -48 8 0 27 9 42 21 47 37 28 134 -31
157 -51 20 -67 21 -311 32 -168 7 -254 15 -277 25 -19 7 -35 12 -35 9z"/>
<path d="M11450 3824 c-65 -125 -69 -134 -43 -111 11 9 31 17 45 17 32 0 407
-185 414 -204 8 -20 -22 -73 -49 -88 -12 -7 -42 -15 -67 -18 l-45 -6 49 -22
c27 -12 54 -22 61 -22 12 0 202 354 219 407 6 19 0 26 -43 48 -63 32 -67 31
-42 -3 11 -16 22 -39 26 -53 9 -35 -18 -103 -41 -106 -10 -2 -109 43 -219 100
-190 97 -200 104 -205 134 -5 30 -8 26 -60 -73z"/>
<path d="M1254 3622 c11 -19 -19 -58 -67 -89 -156 -99 -305 -185 -328 -190
-14 -3 -37 1 -50 7 l-23 13 18 -27 c9 -15 53 -85 95 -154 194 -316 195 -316
204 -288 6 19 54 54 180 132 200 124 222 135 254 123 13 -5 23 -6 23 -4 0 3
-26 46 -57 97 -42 67 -59 87 -61 73 -7 -34 -29 -51 -196 -153 -195 -120 -201
-123 -218 -117 -18 7 -85 106 -93 137 -8 33 1 40 214 168 165 99 196 111 219
88 24 -24 11 4 -44 89 -48 75 -93 137 -70 95z"/>
<path d="M11246 3450 c-36 -55 -66 -102 -66 -105 0 -3 10 1 23 9 44 29 58 14
145 -159 45 -90 82 -169 82 -175 0 -17 -11 -11 -145 74 -144 92 -165 110 -165
136 0 13 -24 -16 -65 -75 -62 -92 -79 -123 -53 -97 28 28 69 11 235 -94 190
-120 218 -144 208 -183 -9 -36 2 -23 79 98 64 99 80 134 41 91 -22 -25 -47
-26 -68 -2 -26 29 -177 331 -168 337 10 5 253 -144 289 -178 17 -16 21 -28 17
-49 -4 -15 -5 -28 -2 -28 5 0 127 195 127 203 0 4 -9 2 -19 -5 -26 -16 -31
-13 -249 127 -176 113 -184 119 -180 146 3 16 4 29 2 29 -1 0 -31 -45 -68
-100z"/>
<path d="M1543 3023 c-24 -9 -13 -21 24 -28 80 -15 164 -82 179 -142 23 -88
-183 -281 -319 -299 -51 -7 -100 22 -128 76 -28 52 -24 98 16 193 12 28 -12
20 -68 -24 -62 -49 -66 -56 -35 -68 16 -6 30 -27 46 -68 46 -122 145 -195 266
-196 152 -2 291 132 290 279 -1 117 -76 221 -191 264 -56 21 -60 22 -80 13z"/>
<path d="M10801 2819 c-62 -76 -76 -99 -59 -94 13 4 25 7 28 7 29 1 47 -9 97
-50 32 -26 109 -87 171 -135 70 -56 112 -95 112 -107 0 -22 -51 -67 -86 -76
-13 -3 -38 -1 -55 5 -18 6 -35 8 -38 5 -3 -4 -1 -9 6 -11 7 -2 28 -18 49 -34
20 -16 40 -29 44 -29 17 0 300 351 300 372 0 16 -78 83 -87 74 -3 -3 -1 -11 4
-18 22 -28 24 -69 4 -114 -11 -24 -27 -47 -35 -50 -13 -5 -331 238 -365 279
-7 10 -11 30 -9 47 3 16 4 30 3 30 -1 0 -39 -45 -84 -101z"/>
<path d="M1922 2558 c-48 -30 -71 -58 -37 -44 44 17 113 17 144 1 38 -19 121
-99 121 -116 0 -15 -150 -169 -165 -169 -16 0 -41 30 -48 58 -5 21 0 49 19 97
6 17 -155 -128 -164 -146 -2 -4 17 0 42 9 43 16 48 16 80 -2 19 -10 37 -24 40
-32 7 -18 -124 -144 -149 -144 -26 0 -99 74 -118 119 -15 36 -9 79 14 107 28
33 -11 10 -51 -31 l-44 -45 70 -73 c39 -39 110 -112 157 -162 79 -82 86 -87
81 -58 -7 37 1 47 201 233 121 113 132 121 163 116 30 -4 20 8 -120 155 -84
87 -159 159 -168 159 -8 0 -39 -15 -68 -32z"/>
<path d="M10492 2476 c-32 -30 -37 -40 -36 -78 0 -26 32 -139 74 -269 49 -146
74 -240 75 -271 0 -27 2 -47 5 -45 3 1 28 26 55 55 42 46 45 52 21 41 -26 -12
-30 -11 -46 9 -16 19 -80 192 -80 215 0 12 29 8 139 -17 114 -25 139 -42 119
-80 -6 -11 34 22 88 74 104 99 119 118 88 105 -11 -4 -26 -9 -34 -12 -19 -5
-440 83 -452 95 -5 5 -13 36 -18 68 -6 46 -5 62 6 74 12 12 17 10 42 -13 30
-29 60 -35 80 -15 33 33 -7 98 -59 98 -19 0 -42 -11 -67 -34z"/>
<path d="M2531 2056 c10 -21 9 -30 -6 -53 -29 -44 -108 -133 -118 -133 -5 0
-23 12 -41 27 -105 88 -227 81 -280 -18 -26 -48 -16 -98 32 -151 42 -47 242
-223 242 -213 0 3 -5 15 -11 26 -14 27 -6 38 158 225 125 143 145 160 182 155
7 -2 12 2 10 7 -4 8 -99 92 -156 136 l-23 18 11 -26z m-181 -181 c17 -9 30
-22 30 -29 0 -11 -65 -94 -136 -175 -10 -12 -56 14 -69 39 -14 28 -14 34 1 65
21 44 97 115 124 115 12 0 34 -7 50 -15z"/>
<path d="M10020 2022 c-36 -31 -81 -69 -100 -83 l-33 -25 37 4 c29 3 43 -1 63
-19 50 -47 273 -318 273 -333 0 -17 -44 -50 -79 -59 -13 -3 -40 1 -59 9 -54
22 -56 17 -15 -31 20 -25 43 -45 51 -45 11 0 222 169 345 276 31 27 29 35 -21
94 -35 40 -47 37 -31 -9 6 -17 8 -42 5 -55 -8 -31 -54 -86 -71 -86 -8 0 -45
37 -83 83 -38 45 -104 123 -146 172 -76 90 -91 126 -64 153 7 7 8 12 3 11 -6
0 -39 -26 -75 -57z"/>
<path d="M9511 1546 c-7 -9 -11 -26 -7 -38 9 -38 135 -188 157 -188 32 0 22
38 -34 140 -43 78 -57 96 -78 98 -14 2 -31 -4 -38 -12z"/>
<path d="M3098 1503 c-24 -28 -98 -180 -98 -203 0 -45 38 -20 105 68 52 69 65
93 63 117 -2 24 -8 31 -29 33 -15 2 -32 -4 -41 -15z"/>
<path d="M9371 1451 c-12 -21 4 -48 91 -160 47 -60 73 -75 84 -47 6 16 -55
144 -93 194 -27 37 -66 43 -82 13z"/>
<path d="M3237 1423 c-27 -31 -109 -203 -103 -219 3 -8 12 -14 20 -14 17 0
144 164 152 197 12 45 -37 71 -69 36z"/>
<path d="M9125 1309 c-60 -33 -158 -84 -217 -114 -63 -32 -108 -61 -108 -70 0
-20 42 -105 52 -105 4 0 5 13 2 29 -4 17 0 42 10 62 18 38 76 82 97 74 19 -7
229 -410 229 -440 0 -13 -11 -32 -25 -43 -53 -42 -7 -28 114 35 141 74 162 89
114 80 -49 -9 -72 18 -162 190 -44 84 -91 173 -105 198 -30 52 -26 70 16 84
54 19 103 14 138 -15 17 -15 33 -25 35 -23 5 5 -63 113 -73 116 -4 1 -56 -25
-117 -58z"/>
<path d="M3425 1227 c-57 -57 -59 -129 -5 -191 17 -19 30 -36 30 -39 0 -11
-250 -157 -270 -157 -13 0 -18 -4 -14 -11 6 -11 128 -69 144 -69 5 0 63 36
129 80 114 76 151 93 151 69 0 -6 -21 -53 -47 -105 -46 -94 -64 -111 -103 -99
-11 3 -20 3 -20 -2 0 -4 51 -33 112 -63 137 -67 137 -67 116 -43 -10 11 -18
27 -18 37 0 17 146 315 197 404 18 31 34 45 55 49 27 5 21 10 -84 65 -158 82
-227 108 -288 108 -46 0 -56 -4 -85 -33z m270 -51 c17 -12 18 -18 7 -52 -20
-62 -86 -179 -103 -182 -9 -2 -33 12 -53 31 -29 27 -36 42 -36 71 0 40 21 88
53 124 24 26 101 31 132 8z"/>
<path d="M8645 1073 c-107 -45 -103 -43 -75 -42 71 3 72 -16 9 -158 -65 -146
-72 -155 -92 -117 -30 58 -67 158 -67 180 0 13 10 30 22 38 12 9 20 17 17 20
-4 4 -235 -87 -245 -97 -3 -2 9 -7 25 -10 37 -8 39 -11 130 -232 85 -209 93
-245 60 -269 -46 -32 -9 -26 82 13 52 22 106 43 121 46 15 4 32 13 38 20 8 9
2 12 -27 11 -36 -1 -39 1 -65 54 -38 77 -62 150 -52 160 5 5 51 -20 104 -56
125 -85 133 -92 127 -115 -3 -10 -3 -19 -1 -19 20 0 213 84 208 91 -3 5 -11 9
-18 9 -15 0 -337 207 -348 224 -4 6 -6 16 -4 21 57 133 84 187 108 218 34 43
25 45 -57 10z"/>
<path d="M3980 1045 c31 -33 27 -51 -59 -274 -79 -205 -93 -231 -121 -231 -42
0 -16 -18 78 -54 53 -21 108 -40 122 -43 l25 -6 -22 22 c-13 12 -23 30 -23 40
0 33 68 196 82 196 8 0 23 -38 40 -105 37 -147 36 -178 -5 -171 -24 4 8 -19
41 -30 20 -6 63 -22 94 -35 81 -34 91 -33 73 10 -28 67 -103 381 -94 392 5 6
53 31 107 55 74 33 110 44 149 44 63 0 58 6 -32 38 -38 13 -79 28 -90 32 -19
8 -19 8 -2 -12 24 -28 21 -46 -10 -65 -52 -29 -253 -111 -260 -105 -6 6 22 90
58 174 14 33 25 44 51 51 l33 9 -40 13 c-22 7 -78 28 -124 46 -46 19 -86 34
-89 34 -3 0 5 -11 18 -25z"/>
<path d="M8065 855 c-5 -2 -95 -27 -200 -55 -217 -60 -229 -65 -188 -73 37 -7
39 -13 97 -222 25 -88 50 -176 55 -195 17 -56 14 -88 -11 -101 -45 -24 1 -19
113 11 224 61 324 93 335 106 7 9 8 34 2 76 -12 89 -13 90 -31 27 -9 -31 -27
-67 -40 -81 -29 -31 -130 -70 -171 -66 -30 3 -32 7 -63 99 -47 144 -47 143 10
147 41 3 51 -1 76 -25 15 -16 30 -35 33 -43 3 -8 8 -12 12 -9 4 4 -4 45 -18
91 -14 47 -28 102 -31 122 -10 51 -21 45 -28 -16 -7 -59 -27 -85 -74 -94 -31
-6 -32 -5 -43 37 -7 24 -19 69 -27 101 -9 31 -13 63 -10 71 7 18 110 47 167
47 38 0 48 -5 82 -42 42 -45 45 -38 19 37 -17 48 -35 62 -66 50z"/>
<path d="M4565 835 c11 -8 25 -19 31 -24 18 -15 155 -442 149 -462 -8 -26 -85
-89 -107 -89 -24 0 -33 25 -20 54 23 52 -43 101 -80 59 -9 -10 -20 -30 -23
-45 -6 -23 -1 -34 28 -63 30 -30 42 -35 80 -35 52 0 96 32 181 129 116 132
282 304 309 317 16 9 27 17 24 20 -2 2 -34 13 -71 23 l-67 19 22 -24 c18 -19
20 -28 12 -46 -13 -28 -151 -188 -162 -188 -10 0 -28 49 -66 175 l-27 89 21
18 c22 17 22 17 -21 28 -24 7 -82 22 -130 36 -100 28 -111 29 -83 9z"/>
<path d="M5171 653 c-19 -80 -21 -93 -11 -93 5 0 16 13 25 30 25 48 97 74 149
54 22 -8 21 -33 -14 -264 -16 -110 -30 -204 -30 -210 0 -20 -40 -50 -67 -50
-54 0 -12 -11 112 -30 155 -24 167 -25 140 -5 -43 31 -47 37 -41 69 4 17 20
123 36 234 17 112 33 208 36 214 9 14 79 4 110 -16 15 -10 29 -34 36 -61 7
-25 15 -45 19 -45 4 0 11 21 14 48 4 26 8 53 10 60 6 16 46 15 70 -2 17 -12
18 -26 11 -246 -7 -247 -14 -283 -54 -288 -12 -2 -20 -8 -17 -13 4 -5 60 -9
126 -9 110 0 119 1 105 16 -13 12 -16 38 -16 122 1 191 17 384 31 393 19 12
142 11 173 -1 25 -9 26 -13 26 -92 0 -46 -5 -157 -10 -247 -8 -126 -14 -169
-26 -182 -15 -17 -14 -18 20 -25 20 -3 65 -3 101 1 62 6 64 7 55 30 -5 13 -5
108 0 227 5 111 10 218 10 235 0 19 8 41 19 52 19 19 19 19 -27 25 -26 3 -166
10 -312 16 -146 6 -287 15 -315 21 -59 11 -454 69 -472 69 -7 0 -16 -17 -22
-37z"/>
<path d="M7210 660 c-233 -84 -252 -421 -31 -539 52 -27 69 -31 137 -31 66 0
89 5 139 28 151 72 209 236 139 393 -65 144 -225 206 -384 149z m146 -15 c41
-17 71 -76 99 -195 20 -89 24 -245 6 -278 -29 -55 -120 -78 -180 -47 -56 29
-102 186 -105 357 -1 110 14 143 75 165 46 16 63 16 105 -2z"/>
<path d="M6510 591 c-61 -4 -79 -8 -62 -14 12 -5 27 -18 34 -30 6 -13 15 -119
21 -261 9 -227 9 -240 -8 -253 -17 -11 -11 -13 47 -13 36 0 86 3 112 6 45 7
46 8 30 25 -12 13 -19 49 -25 120 -5 55 -7 104 -4 109 2 4 31 10 63 13 154 13
232 106 187 223 -31 82 -97 94 -395 75z m208 -22 c20 -7 34 -21 41 -41 15 -43
14 -160 -1 -181 -15 -19 -95 -50 -102 -39 -3 4 -8 63 -12 130 l-7 122 24 9
c13 5 24 10 25 10 1 1 15 -4 32 -10z"/>
</g>
</svg>
